<?xml version="1.0" encoding="UTF-8" standalone="no"?>
<svg xmlns="http://www.w3.org/2000/svg" xmlns:xlink="http://www.w3.org/1999/xlink" contentScriptType="application/ecmascript" contentStyleType="text/css" height="860px" preserveAspectRatio="none" style="width:1538px;height:860px;" version="1.1" viewBox="0 0 1538 860" width="1538px" zoomAndPan="magnify"><defs><filter height="300%" id="f1ra5c5326cdx5" width="300%" x="-1" y="-1"><feGaussianBlur result="blurOut" stdDeviation="2.0"/><feColorMatrix in="blurOut" result="blurOut2" type="matrix" values="0 0 0 0 0 0 0 0 0 0 0 0 0 0 0 0 0 0 .4 0"/><feOffset dx="4.0" dy="4.0" in="blurOut2" result="blurOut3"/><feBlend in="SourceGraphic" in2="blurOut3" mode="normal"/></filter></defs><g><!--MD5=[97ab183161fd5d1db7fba7485cf76add]
entity Admin--><ellipse cx="127" cy="624" fill="#FEFECE" filter="url(#f1ra5c5326cdx5)" rx="8" ry="8" style="stroke:#A80036;stroke-width:1.5;"/><path d="M127,632 L127,659 M114,640 L140,640 M127,659 L114,674 M127,659 L140,674 " fill="none" filter="url(#f1ra5c5326cdx5)" style="stroke:#A80036;stroke-width:1.5;"/><text fill="#000000" font-family="sans-serif" font-size="14" lengthAdjust="spacing" textLength="46" x="104" y="692.4951">Admin</text><ellipse cx="494.7353" cy="825.8471" fill="#FEFECE" filter="url(#f1ra5c5326cdx5)" rx="64.7353" ry="15.3471" style="stroke:#A80036;stroke-width:1.5;"/><text fill="#000000" font-family="sans-serif" font-size="14" lengthAdjust="spacing" textLength="78" x="452.7353" y="829.5946">s'identifier</text><ellipse cx="889.3371" cy="826.1674" fill="#FEFECE" filter="url(#f1ra5c5326cdx5)" rx="101.3371" ry="22.6674" style="stroke:#A80036;stroke-width:1.5;"/><text fill="#000000" font-family="sans-serif" font-size="14" lengthAdjust="spacing" textLength="167" x="805.8371" y="829.0141">initialiser mot de passe</text><ellipse cx="494.712" cy="744.8424" fill="#FEFECE" filter="url(#f1ra5c5326cdx5)" rx="139.712" ry="30.3424" style="stroke:#A80036;stroke-width:1.5;"/><text fill="#000000" font-family="sans-serif" font-size="14" lengthAdjust="spacing" textLength="249" x="370.212" y="747.6891">paramètrer les seuils de recherche</text><ellipse cx="494.5557" cy="654.9111" fill="#FEFECE" filter="url(#f1ra5c5326cdx5)" rx="110.0557" ry="24.4111" style="stroke:#A80036;stroke-width:1.5;"/><text fill="#000000" font-family="sans-serif" font-size="14" lengthAdjust="spacing" textLength="186" x="401.5557" y="657.7578">Indexer documents image</text><ellipse cx="494.3371" cy="489.1674" fill="#FEFECE" filter="url(#f1ra5c5326cdx5)" rx="101.3371" ry="22.6674" style="stroke:#A80036;stroke-width:1.5;"/><text fill="#000000" font-family="sans-serif" font-size="14" lengthAdjust="spacing" textLength="167" x="410.8371" y="492.0141">Indexer documents son</text><ellipse cx="494.709" cy="571.0418" fill="#FEFECE" filter="url(#f1ra5c5326cdx5)" rx="108.209" ry="24.0418" style="stroke:#A80036;stroke-width:1.5;"/><text fill="#000000" font-family="sans-serif" font-size="14" lengthAdjust="spacing" textLength="182" x="403.709" y="573.8885">Indexer documents texte</text><ellipse cx="889.3615" cy="571.1946" fill="#FEFECE" filter="url(#f1ra5c5326cdx5)" rx="50.3615" ry="14.6946" style="stroke:#A80036;stroke-width:1.5;"/><text fill="#000000" font-family="sans-serif" font-size="14" lengthAdjust="spacing" textLength="54" x="859.3615" y="574.9422">Indexer</text><ellipse cx="1234.712" cy="570.9424" fill="#FEFECE" filter="url(#f1ra5c5326cdx5)" rx="82.712" ry="18.9424" style="stroke:#A80036;stroke-width:1.5;"/><text fill="#000000" font-family="sans-serif" font-size="14" lengthAdjust="spacing" textLength="125" x="1171.5208" y="574.0215">indexer un fichier</text><ellipse cx="889.3592" cy="484.8718" fill="#FEFECE" filter="url(#f1ra5c5326cdx5)" rx="84.8592" ry="19.3718" style="stroke:#A80036;stroke-width:1.5;"/><text fill="#000000" font-family="sans-serif" font-size="14" lengthAdjust="spacing" textLength="130" x="824.3592" y="487.7185">indexer un dossier</text><!--MD5=[fee662a292a0353a69bd162820bae93b]
entity User--><ellipse cx="127" cy="252" fill="#FEFECE" filter="url(#f1ra5c5326cdx5)" rx="8" ry="8" style="stroke:#A80036;stroke-width:1.5;"/><path d="M127,260 L127,287 M114,268 L140,268 M127,287 L114,302 M127,287 L140,302 " fill="none" filter="url(#f1ra5c5326cdx5)" style="stroke:#A80036;stroke-width:1.5;"/><text fill="#000000" font-family="sans-serif" font-size="14" lengthAdjust="spacing" textLength="31" x="111.5" y="320.4951">User</text><ellipse cx="494.2599" cy="128.852" fill="#FEFECE" filter="url(#f1ra5c5326cdx5)" rx="97.2599" ry="21.852" style="stroke:#A80036;stroke-width:1.5;"/><text fill="#000000" font-family="sans-serif" font-size="14" lengthAdjust="spacing" textLength="158" x="415.2599" y="131.6987">Visualiser les résultats</text><ellipse cx="494.4079" cy="30.7816" fill="#FEFECE" filter="url(#f1ra5c5326cdx5)" rx="111.9079" ry="24.7816" style="stroke:#A80036;stroke-width:1.5;"/><text fill="#000000" font-family="sans-serif" font-size="14" lengthAdjust="spacing" textLength="190" x="399.4079" y="33.6283">Sélectionner un document</text><ellipse cx="126.7717" cy="47.0543" fill="#FEFECE" filter="url(#f1ra5c5326cdx5)" rx="120.7717" ry="26.5543" style="stroke:#A80036;stroke-width:1.5;"/><text fill="#000000" font-family="sans-serif" font-size="14" lengthAdjust="spacing" textLength="209" x="22.2717" y="49.901">Consulter le nouveau résultat</text><ellipse cx="126.8872" cy="144.7774" fill="#FEFECE" filter="url(#f1ra5c5326cdx5)" rx="91.8872" ry="20.7774" style="stroke:#A80036;stroke-width:1.5;"/><text fill="#000000" font-family="sans-serif" font-size="14" lengthAdjust="spacing" textLength="146" x="53.8872" y="147.6241">Visualiser les erreurs</text><ellipse cx="889.4738" cy="128.8948" fill="#FEFECE" filter="url(#f1ra5c5326cdx5)" rx="99.9738" ry="22.3948" style="stroke:#A80036;stroke-width:1.5;"/><text fill="#000000" font-family="sans-serif" font-size="14" lengthAdjust="spacing" textLength="164" x="807.4738" y="131.7414">sauvegarder recherche</text><ellipse cx="889.3277" cy="40.8655" fill="#FEFECE" filter="url(#f1ra5c5326cdx5)" rx="137.3277" ry="29.8655" style="stroke:#A80036;stroke-width:1.5;"/><text fill="#000000" font-family="sans-serif" font-size="14" lengthAdjust="spacing" textLength="244" x="767.3277" y="43.7122">consulter les résultats enregistrés</text><ellipse cx="494.5909" cy="217.1182" fill="#FEFECE" filter="url(#f1ra5c5326cdx5)" rx="123.5909" ry="27.1182" style="stroke:#A80036;stroke-width:1.5;"/><text fill="#000000" font-family="sans-serif" font-size="14" lengthAdjust="spacing" textLength="215" x="387.0909" y="219.9649">Rechercher documents image</text><ellipse cx="494.6957" cy="304.8391" fill="#FEFECE" filter="url(#f1ra5c5326cdx5)" rx="114.6957" ry="25.3391" style="stroke:#A80036;stroke-width:1.5;"/><text fill="#000000" font-family="sans-serif" font-size="14" lengthAdjust="spacing" textLength="196" x="396.6957" y="307.6858">Rechercher documents son</text><ellipse cx="494.7105" cy="392.2421" fill="#FEFECE" filter="url(#f1ra5c5326cdx5)" rx="121.7105" ry="26.7421" style="stroke:#A80036;stroke-width:1.5;"/><text fill="#000000" font-family="sans-serif" font-size="14" lengthAdjust="spacing" textLength="211" x="389.2105" y="395.0888">Rechercher documents texte</text><ellipse cx="889.4626" cy="315.1925" fill="#FEFECE" filter="url(#f1ra5c5326cdx5)" rx="66.4626" ry="15.6925" style="stroke:#A80036;stroke-width:1.5;"/><text fill="#000000" font-family="sans-serif" font-size="14" lengthAdjust="spacing" textLength="83" x="844.9626" y="318.9401">Rechercher</text><ellipse cx="889.6224" cy="217.2245" fill="#FEFECE" filter="url(#f1ra5c5326cdx5)" rx="141.6224" ry="30.7245" style="stroke:#A80036;stroke-width:1.5;"/><text fill="#000000" font-family="sans-serif" font-size="14" lengthAdjust="spacing" textLength="253" x="763.1224" y="220.0712">Selectionner le mode de recherche</text><ellipse cx="889.2877" cy="405.8575" fill="#FEFECE" filter="url(#f1ra5c5326cdx5)" rx="107.2877" ry="23.8575" style="stroke:#A80036;stroke-width:1.5;"/><text fill="#000000" font-family="sans-serif" font-size="14" lengthAdjust="spacing" textLength="180" x="799.2877" y="408.7042">Selectionner les moteurs</text><ellipse cx="1234.5656" cy="471.1131" fill="#FEFECE" filter="url(#f1ra5c5326cdx5)" rx="83.5656" ry="19.1131" style="stroke:#A80036;stroke-width:1.5;"/><text fill="#000000" font-family="sans-serif" font-size="14" lengthAdjust="spacing" textLength="127" x="1170.6623" y="474.0974">Creer descripteur</text><ellipse cx="1234.3591" cy="382.1718" fill="#FEFECE" filter="url(#f1ra5c5326cdx5)" rx="96.3591" ry="21.6718" style="stroke:#A80036;stroke-width:1.5;"/><text fill="#000000" font-family="sans-serif" font-size="14" lengthAdjust="spacing" textLength="156" x="1156.3591" y="385.0185">Consulter descripteur</text><ellipse cx="1459.1678" cy="420.8336" fill="#FEFECE" filter="url(#f1ra5c5326cdx5)" rx="67.1678" ry="15.8336" style="stroke:#A80036;stroke-width:1.5;"/><text fill="#000000" font-family="sans-serif" font-size="14" lengthAdjust="spacing" textLength="85" x="1413.6678" y="424.5811">Descripteur</text><!--MD5=[e63941ac83a81ed788edee9d263990cd]
link Admin to s'identifier--><path d="M150.252,671.828 C189.523,700.746 274.593,759.9418 355,793 C382.319,804.232 414.313,812.1685 440.663,817.4388 " fill="none" id="Admin-s'identifier" style="stroke:#A80036;stroke-width:1.0;"/><!--MD5=[a2fba6fdc4f076d23e4bcd71b490e7f0]
reverse link s'identifier to initialiser mot de passe--><path d="M564.222,826 C626.053,826 717.687,826 787.789,826 " fill="none" id="s'identifier-backto-initialiser mot de passe" style="stroke:#A80036;stroke-width:1.0;stroke-dasharray:7.0,7.0;"/><polygon fill="#A80036" points="559.079,826,568.079,830,564.079,826,568.079,822,559.079,826" style="stroke:#A80036;stroke-width:1.0;"/><text fill="#000000" font-family="sans-serif" font-size="13" lengthAdjust="spacing" textLength="45" x="668.5" y="822.0669">extend</text><!--MD5=[b9ff4dc4cfdf8b4cc470900f2e593f72]
link Admin to paramètrer les seuils de recherche--><path d="M150.041,660.427 C198.58,672.38 317.08,701.559 401.278,722.291 " fill="none" id="Admin-paramètrer les seuils de recherche" style="stroke:#A80036;stroke-width:1.0;"/><!--MD5=[bdd2b9d7d87156957b4a873c5c54cd0a]
link Admin to Indexer documents image--><path d="M150.041,655 C195.416,655 301.929,655 384.405,655 " fill="none" id="Admin-Indexer documents image" style="stroke:#A80036;stroke-width:1.0;"/><!--MD5=[f91826bc403bfd9828bcb8379b1c59c2]
link Admin to Indexer documents son--><path d="M150.069,640.728 C189.744,615.561 276.328,562.853 355,530 C377.677,520.53 403.289,512.302 426.265,505.753 " fill="none" id="Admin-Indexer documents son" style="stroke:#A80036;stroke-width:1.0;"/><!--MD5=[292c5b5c9132a4e96983048920895059]
link Admin to Indexer documents texte--><path d="M150.041,649.935 C202.053,637.981 334.393,607.566 418.784,588.171 " fill="none" id="Admin-Indexer documents texte" style="stroke:#A80036;stroke-width:1.0;"/><!--MD5=[1a3f8340fc544199883c2f9d4c4d27da]
link Indexer documents image to Indexer--><path d="M574.557,638.102 C649.715,622.038 761.082,598.234 828.994,583.719 " fill="none" id="Indexer documents image-to-Indexer" style="stroke:#A80036;stroke-width:1.0;"/><polygon fill="none" points="827.566,576.866,848.587,579.531,830.492,590.557,827.566,576.866" style="stroke:#A80036;stroke-width:1.0;"/><!--MD5=[506a698019276a27ce99505bfb22614e]
link Indexer documents son to Indexer--><path d="M568.959,504.327 C643.917,519.967 758.845,543.947 828.514,558.484 " fill="none" id="Indexer documents son-to-Indexer" style="stroke:#A80036;stroke-width:1.0;"/><polygon fill="none" points="830.016,551.646,848.164,562.584,827.156,565.351,830.016,551.646" style="stroke:#A80036;stroke-width:1.0;"/><!--MD5=[313c85c3a4b4c4e91c0751633e70ac8a]
link Indexer documents texte to Indexer--><path d="M602.629,571 C671.299,571 758.473,571 818.398,571 " fill="none" id="Indexer documents texte-to-Indexer" style="stroke:#A80036;stroke-width:1.0;"/><polygon fill="none" points="818.771,564,838.771,571,818.771,578,818.771,564" style="stroke:#A80036;stroke-width:1.0;"/><!--MD5=[46af7715917fb1a7eb24888b478eb244]
reverse link Indexer to indexer un fichier--><path d="M945.302,571 C1001.023,571 1088.01,571 1151.85,571 " fill="none" id="Indexer-backto-indexer un fichier" style="stroke:#A80036;stroke-width:1.0;stroke-dasharray:7.0,7.0;"/><polygon fill="#A80036" points="940.009,571,949.009,575,945.009,571,949.009,567,940.009,571" style="stroke:#A80036;stroke-width:1.0;"/><text fill="#000000" font-family="sans-serif" font-size="13" lengthAdjust="spacing" textLength="45" x="1062" y="567.0669">extend</text><!--MD5=[c24efe8a0d783600a34bd8445bd41d2c]
link indexer un dossier to Indexer--><path d="M889.5,504.513 C889.5,518.434 889.5,537.093 889.5,551.101 " fill="none" id="indexer un dossier-to-Indexer" style="stroke:#A80036;stroke-width:1.0;stroke-dasharray:7.0,7.0;"/><polygon fill="#A80036" points="889.5,556.411,893.5,547.411,889.5,551.411,885.5,547.411,889.5,556.411" style="stroke:#A80036;stroke-width:1.0;"/><text fill="#000000" font-family="sans-serif" font-size="13" lengthAdjust="spacing" textLength="45" x="855.5" y="535.0669">extend</text><!--MD5=[f7dcc11959ba8ad60e5ac9d4acabb21a]
link User to Visualiser les résultats--><path d="M142.542,275.042 C178.07,255.802 272.423,205.927 355,173 C380.075,163.001 408.385,153.674 432.845,146.204 " fill="none" id="User-Visualiser les résultats" style="stroke:#A80036;stroke-width:1.0;"/><!--MD5=[08eb3ed7fc00a2827d2b92131296cd6a]
link Consulter le nouveau résultat to Sélectionner un document--><path d="M245.91,41.838 C288.612,39.969 336.74,37.862 379.132,36.007 " fill="none" id="Consulter le nouveau résultat-to-Sélectionner un document" style="stroke:#A80036;stroke-width:1.0;stroke-dasharray:7.0,7.0;"/><polygon fill="#A80036" points="384.273,35.781,375.1068,32.1782,379.2778,35.9995,375.4564,40.1706,384.273,35.781" style="stroke:#A80036;stroke-width:1.0;"/><text fill="#000000" font-family="sans-serif" font-size="13" lengthAdjust="spacing" textLength="45" x="279" y="35.0669">extend</text><!--MD5=[4d1d7613f9c2aeb0424679864c3a36c4]
reverse link Visualiser les erreurs to Visualiser les résultats--><path d="M223.872,147.203 C241.857,147.535 260.502,147.825 278,148 C298.888,148.209 304.144,149.172 325,148 C352.923,146.431 383.326,143.41 410.523,140.23 " fill="none" id="Visualiser les erreurs-backto-Visualiser les résultats" style="stroke:#A80036;stroke-width:1.0;stroke-dasharray:7.0,7.0;"/><polygon fill="#A80036" points="218.819,147.108,227.742,151.277,223.8181,147.2023,227.8928,143.2784,218.819,147.108" style="stroke:#A80036;stroke-width:1.0;"/><text fill="#000000" font-family="sans-serif" font-size="13" lengthAdjust="spacing" textLength="45" x="279" y="144.0669">include</text><!--MD5=[e0b5273ca3794cac6e984d592e6dad19]
reverse link Consulter le nouveau résultat to Visualiser les résultats--><path d="M217.262,67.026 C281.152,81.36 365.904,100.374 424.606,113.544 " fill="none" id="Consulter le nouveau résultat-backto-Visualiser les résultats" style="stroke:#A80036;stroke-width:1.0;stroke-dasharray:7.0,7.0;"/><polygon fill="#A80036" points="212.312,65.915,220.2187,71.7873,217.1908,67.009,221.9691,63.9812,212.312,65.915" style="stroke:#A80036;stroke-width:1.0;"/><text fill="#000000" font-family="sans-serif" font-size="13" lengthAdjust="spacing" textLength="45" x="279" y="77.0669">include</text><!--MD5=[1575feb2bc1c0e6292dadd65b796ec7a]
reverse link Visualiser les résultats to sauvegarder recherche--><path d="M597.458,129 C656.635,129 730.83,129 789.496,129 " fill="none" id="Visualiser les résultats-backto-sauvegarder recherche" style="stroke:#A80036;stroke-width:1.0;stroke-dasharray:7.0,7.0;"/><polygon fill="#A80036" points="592.142,129,601.142,133,597.142,129,601.142,125,592.142,129" style="stroke:#A80036;stroke-width:1.0;"/><text fill="#000000" font-family="sans-serif" font-size="13" lengthAdjust="spacing" textLength="52" x="665" y="125.0669">extends</text><!--MD5=[0240e1d0c02f870311f50406ffdc43e1]
reverse link Visualiser les résultats to consulter les résultats enregistrés--><path d="M569.285,112.478 C632.473,98.329 723.89,77.859 792.715,62.448 " fill="none" id="Visualiser les résultats-backto-consulter les résultats enregistrés" style="stroke:#A80036;stroke-width:1.0;stroke-dasharray:7.0,7.0;"/><polygon fill="#A80036" points="564.405,113.571,574.0617,115.5069,569.2841,112.478,572.313,107.7004,564.405,113.571" style="stroke:#A80036;stroke-width:1.0;"/><text fill="#000000" font-family="sans-serif" font-size="13" lengthAdjust="spacing" textLength="52" x="665" y="76.0669">extends</text><!--MD5=[9e58c540b293fdadf930805b49c4bbc7]
link User to Rechercher documents image--><path d="M142.781,280.331 C185.184,272.674 309.865,250.16 398.474,234.159 " fill="none" id="User-Rechercher documents image" style="stroke:#A80036;stroke-width:1.0;"/><!--MD5=[11c07c8bc9c7309e92e19f0a78fe75e4]
link User to Rechercher documents son--><path d="M142.781,283.89 C182.847,286.301 296.37,293.134 383.513,298.38 " fill="none" id="User-Rechercher documents son" style="stroke:#A80036;stroke-width:1.0;"/><!--MD5=[2449b745c0805b1c69adae1dea4a5da0]
link User to Rechercher documents texte--><path d="M142.781,287.408 C189.057,301.208 333.327,344.233 421.761,370.606 " fill="none" id="User-Rechercher documents texte" style="stroke:#A80036;stroke-width:1.0;"/><!--MD5=[0c33a43f65a0aab9f5947811b15540e2]
link Rechercher documents image to Rechercher--><path d="M576.93,237.306 C650.178,255.571 756.364,282.05 823.911,298.894 " fill="none" id="Rechercher documents image-to-Rechercher" style="stroke:#A80036;stroke-width:1.0;"/><polygon fill="none" points="825.842,292.161,843.554,303.792,822.455,305.745,825.842,292.161" style="stroke:#A80036;stroke-width:1.0;"/><!--MD5=[884a21e9137b846c59def689aaa73950]
link Rechercher documents son to Rechercher--><path d="M608.381,307.872 C670.39,309.45 746.056,311.375 803.108,312.827 " fill="none" id="Rechercher documents son-to-Rechercher" style="stroke:#A80036;stroke-width:1.0;"/><polygon fill="none" points="803.41,305.832,823.225,313.339,803.054,319.828,803.41,305.832" style="stroke:#A80036;stroke-width:1.0;"/><!--MD5=[6be1904ed127d939d6b333d8819d2b1b]
link Rechercher documents texte to Rechercher--><path d="M585.662,374.335 C656.312,360.492 753.205,341.508 818.188,328.776 " fill="none" id="Rechercher documents texte-to-Rechercher" style="stroke:#A80036;stroke-width:1.0;"/><polygon fill="none" points="817.119,321.853,838.092,324.876,819.811,335.591,817.119,321.853" style="stroke:#A80036;stroke-width:1.0;"/><!--MD5=[4b16f64dc243193b205ef0a75b277e90]
link Selectionner le mode de recherche to Rechercher--><path d="M889.5,247.739 C889.5,262.836 889.5,280.631 889.5,294.125 " fill="none" id="Selectionner le mode de recherche-to-Rechercher" style="stroke:#A80036;stroke-width:1.0;stroke-dasharray:7.0,7.0;"/><polygon fill="#A80036" points="889.5,299.255,893.5,290.255,889.5,294.255,885.5,290.255,889.5,299.255" style="stroke:#A80036;stroke-width:1.0;"/><text fill="#000000" font-family="sans-serif" font-size="13" lengthAdjust="spacing" textLength="45" x="855.5" y="278.0669">include</text><!--MD5=[5c7b954ad408a0fdaf0cad31126e6298]
link Rechercher to Selectionner les moteurs--><path d="M889.5,330.576 C889.5,343.163 889.5,361.241 889.5,376.543 " fill="none" id="Rechercher-to-Selectionner les moteurs" style="stroke:#A80036;stroke-width:1.0;stroke-dasharray:7.0,7.0;"/><polygon fill="#A80036" points="889.5,381.614,893.5,372.614,889.5,376.614,885.5,372.614,889.5,381.614" style="stroke:#A80036;stroke-width:1.0;"/><text fill="#000000" font-family="sans-serif" font-size="13" lengthAdjust="spacing" textLength="45" x="855.5" y="360.8169">include</text><!--MD5=[12c272a9c9542d478df4e58cf558cc6a]
link Indexer to Creer descripteur--><path d="M925.595,560.768 C985.037,543.438 1106,508.171 1177.34,487.372 " fill="none" id="Indexer-to-Creer descripteur" style="stroke:#A80036;stroke-width:1.0;stroke-dasharray:7.0,7.0;"/><polygon fill="#A80036" points="1182.39,485.9,1172.63,484.58,1177.59,487.3,1174.87,492.26,1182.39,485.9" style="stroke:#A80036;stroke-width:1.0;"/><text fill="#000000" font-family="sans-serif" font-size="13" lengthAdjust="spacing" textLength="45" x="1062" y="505.0669">include</text><!--MD5=[3bc8f96b97a39b63640e01b6896813d6]
link Rechercher to Consulter descripteur--><path d="M941.111,324.886 C997.867,335.972 1090.56,354.079 1156.36,366.931 " fill="none" id="Rechercher-to-Consulter descripteur" style="stroke:#A80036;stroke-width:1.0;stroke-dasharray:7.0,7.0;"/><polygon fill="#A80036" points="1161.44,367.925,1153.3719,362.2764,1156.5324,366.9681,1151.8408,370.1286,1161.44,367.925" style="stroke:#A80036;stroke-width:1.0;"/><text fill="#000000" font-family="sans-serif" font-size="13" lengthAdjust="spacing" textLength="45" x="1062" y="344.0669">include</text><!--MD5=[e21fa5f6ece063d5bec7e6f5700d3f00]
link Consulter descripteur to Descripteur--><path d="M1310.83,395.204 C1334.62,399.374 1360.87,403.975 1384.53,408.122 " fill="none" id="Consulter descripteur-to-Descripteur" style="stroke:#A80036;stroke-width:1.0;"/><polygon fill="none" points="1386.04,401.28,1404.53,411.628,1383.62,415.069,1386.04,401.28" style="stroke:#A80036;stroke-width:1.0;"/><!--MD5=[d94f196fd8b78df5646f7f07586d2e21]
link Creer descripteur to Descripteur--><path d="M1294.54,457.732 C1323.87,451.142 1359.45,443.146 1389.92,436.299 " fill="none" id="Creer descripteur-to-Descripteur" style="stroke:#A80036;stroke-width:1.0;"/><polygon fill="none" points="1388.52,429.438,1409.57,431.883,1391.59,443.098,1388.52,429.438" style="stroke:#A80036;stroke-width:1.0;"/><!--MD5=[140d0040e01ec2a9fe8c6fdfa39a8378]
@startuml
left to right direction

Admin - - (s'identifier)
(initialiser mot de passe) .up.> (s'identifier): extend
Admin - - (paramètrer les seuils de recherche)

Admin - - (Indexer documents image)
Admin - - (Indexer documents son)
Admin - - (Indexer documents texte)

(Indexer documents image)  - -|> (Indexer)
(Indexer documents son) - -|> (Indexer)
(Indexer documents texte)- -|> (Indexer)

(indexer un fichier) .up.> (Indexer) : extend
(indexer un dossier) .> (Indexer) : extend


User - - (Visualiser les résultats)

(Sélectionner un document) <.up. (Consulter le nouveau résultat) : extend
(Visualiser les résultats) .up.> (Visualiser les erreurs) : include
(Visualiser les résultats) .up.> (Consulter le nouveau résultat) : include
(sauvegarder recherche) .up.> (Visualiser les résultats) : extends
(consulter les résultats enregistrés) .up.> (Visualiser les résultats) : extends


User - - (Rechercher documents image)
User - - (Rechercher documents son)
User - - (Rechercher documents texte)

(Rechercher documents image)  - -|> (Rechercher)
(Rechercher documents son) - -|> (Rechercher)
(Rechercher documents texte)- -|> (Rechercher)

(Selectionner le mode de recherche) .> (Rechercher) : include
(Rechercher) .> (Selectionner les moteurs) : include

(Indexer) ..> (Creer descripteur) : include
(Rechercher) ..> (Consulter descripteur) : include

(Consulter descripteur) - -|> (Descripteur)
(Creer descripteur) - -|> (Descripteur)
@enduml

PlantUML version 1.2021.2beta8(Unknown compile time)
(GPL source distribution)
Java Runtime: Java(TM) SE Runtime Environment
JVM: Java HotSpot(TM) 64-Bit Server VM
Default Encoding: UTF-8
Language: en
Country: US
--></g></svg>